# xmcd
#
# Track frame offsets: 
#        150
#        12540
#        24064
#        42122
#        53131
#        66591
#        83869
#        98730
#        111163
#        124327
#        140281
#        153016
#
# Disc length: 2202 seconds
#
# Revision: 0
# Processed by: cddbd v1.5.2PL0 Copyright (c) Steve Scherf et al.
# Submitted via: ExactAudioCopy v0.99pb4
#
DISCID=9508980c
DTITLE=Freddy Fender - Best of Freddy Fender
DYEAR=2007
DGENRE=Country
TTITLE0=Before The Next Teardorp Falls
TTITLE1=Wasted Days and Wasted Nights
TTITLE2=Secret Love
TTITLE3=You'll Lose a Good Thing
TTITLE4=Vaya Con Dios
TTITLE5=Livin' It Down
TTITLE6=Rains Came
TTITLE7=Sugar Coated Love
TTITLE8=If You Don't Love Me
TTITLE9=Since I Met You Baby
TTITLE10=Talk To Me
TTITLE11=I Love My Rancho Grande
EXTD=
EXTT0=
EXTT1=
EXTT2=
EXTT3=
EXTT4=
EXTT5=
EXTT6=
EXTT7=
EXTT8=
EXTT9=
EXTT10=
EXTT11=
PLAYORDER=
